<svg width="18" height="18" viewBox="0 0 18 18" fill="none" xmlns="http://www.w3.org/2000/svg">
<path d="M6 10.5C8.48528 10.5 10.5 8.48528 10.5 6C10.5 3.51472 8.48528 1.5 6 1.5C3.51472 1.5 1.5 3.51472 1.5 6C1.5 8.48528 3.51472 10.5 6 10.5Z" stroke="#E17100" stroke-width="1.5" stroke-linecap="round" stroke-linejoin="round"/>
<path d="M13.5675 7.77759C14.2765 8.04191 14.9074 8.48074 15.4018 9.05349C15.8963 9.62624 16.2383 10.3144 16.3963 11.0544C16.5543 11.7944 16.5232 12.5622 16.3058 13.287C16.0884 14.0117 15.6918 14.67 15.1526 15.2008C14.6134 15.7316 13.949 16.118 13.221 16.324C12.4929 16.5301 11.7247 16.5492 10.9873 16.3797C10.2499 16.2101 9.56709 15.8574 9.00213 15.3541C8.43716 14.8508 8.00823 14.2131 7.755 13.5001" stroke="#E17100" stroke-width="1.5" stroke-linecap="round" stroke-linejoin="round"/>
<path d="M5.25 4.5H6V7.5" stroke="#E17100" stroke-width="1.5" stroke-linecap="round" stroke-linejoin="round"/>
<path d="M12.5325 10.4099L13.0575 10.9424L10.9425 13.0574" stroke="#E17100" stroke-width="1.5" stroke-linecap="round" stroke-linejoin="round"/>
</svg>
